<?xml version="1.0" encoding="UTF-8" standalone="no"?>
<!-- Generator: Adobe Illustrator 16.2.1, SVG Export Plug-In . SVG Version: 6.00 Build 0)  -->

<svg
   xmlns:dc="http://purl.org/dc/elements/1.1/"
   xmlns:cc="http://creativecommons.org/ns#"
   xmlns:rdf="http://www.w3.org/1999/02/22-rdf-syntax-ns#"
   xmlns:svg="http://www.w3.org/2000/svg"
   xmlns="http://www.w3.org/2000/svg"
   xmlns:sodipodi="http://sodipodi.sourceforge.net/DTD/sodipodi-0.dtd"
   xmlns:inkscape="http://www.inkscape.org/namespaces/inkscape"
   version="1.1"
   id="Layer_1"
   x="0px"
   y="0px"
   width="512px"
   height="512px"
   viewBox="0 0 512 512"
   style="enable-background:new 0 0 512 512;"
   xml:space="preserve"
   inkscape:version="0.48.4 r9939"
   sodipodi:docname="logo310w.svg"
   inkscape:export-filename="/home/andreas/btsync/programme/uni/img/logo768.png"
   inkscape:export-xdpi="222.88"
   inkscape:export-ydpi="222.88"><metadata
     id="metadata15"><rdf:RDF><cc:Work
         rdf:about=""><dc:format>image/svg+xml</dc:format><dc:type
           rdf:resource="http://purl.org/dc/dcmitype/StillImage" /><dc:title></dc:title></cc:Work></rdf:RDF></metadata><defs
     id="defs13" /><sodipodi:namedview
     pagecolor="#ffffff"
     bordercolor="#666666"
     borderopacity="1"
     objecttolerance="10"
     gridtolerance="10"
     guidetolerance="10"
     inkscape:pageopacity="0"
     inkscape:pageshadow="2"
     inkscape:window-width="1301"
     inkscape:window-height="744"
     id="namedview11"
     showgrid="false"
     inkscape:zoom="0.69274165"
     inkscape:cx="155.21602"
     inkscape:cy="165.16265"
     inkscape:window-x="65"
     inkscape:window-y="24"
     inkscape:window-maximized="1"
     inkscape:current-layer="Layer_1" /><rect
     style="fill:#2c3e5f;fill-opacity:1;stroke:#000000;stroke-width:0;stroke-miterlimit:4;stroke-opacity:1;stroke-dasharray:none"
     id="rect2992"
     width="310"
     height="310"
     x="0"
     y="202" /><g
     id="g3942"
     transform="translate(0,-84.037385)"><g
       transform="matrix(0.17857143,0,0,0.17857143,10.216783,390.20277)"
       id="g3909"><g
         id="g3"
         style="fill:#ecf0f1;fill-opacity:1;stroke:none"><path
           inkscape:connector-curvature="0"
           d="m 144,128 c 17.7,0 32,-14.3 32,-32 V 64 c 0,-17.7 -14.3,-32 -32,-32 -17.7,0 -32,14.3 -32,32 v 32 c 0,17.7 14.3,32 32,32 z"
           id="path5"
           style="fill:#ecf0f1;fill-opacity:1;stroke:none" /><path
           inkscape:connector-curvature="0"
           d="m 368,128 c 17.7,0 32,-14.3 32,-32 V 64 c 0,-17.7 -14.3,-32 -32,-32 -17.7,0 -32,14.3 -32,32 v 32 c 0,17.7 14.3,32 32,32 z"
           id="path7"
           style="fill:#ecf0f1;fill-opacity:1;stroke:none" /><path
           inkscape:connector-curvature="0"
           d="m 472,80.275521 h -56 v 40.699999 c 0,22.5 -23.2,39.3 -47.2,39.3 -24,0 -48.8,-16.8 -48.8,-39.3 V 80.275521 H 192 v 40.699999 c 0,22.5 -24,39.3 -48,39.3 -24,0 -48,-16.8 -48,-39.3 V 80.275521 H 40 c -4.4,0 -8,3.6 -8,8 V 488.27552 c 0,4.4 3.6,8 8,8 h 432 c 4.4,0 8,-3.6 8,-8 V 88.275521 c 0,-4.4 -3.6,-8 -8,-8 z M 432,448.27552 H 80 v -256 h 352 v 256 z"
           id="path9"
           style="fill:#ecf0f1;fill-opacity:1;stroke:none" /></g><path
         inkscape:connector-curvature="0"
         style="fill:#ecf0f1;fill-opacity:1;fill-rule:nonzero;stroke:none"
         id="path151"
         d="m 137.15606,353.39622 c 0.81468,-20.76502 12.22017,-40.00252 22.24625,-57.44402 6.9155,-10.69265 14.9049,-21.052 23.11648,-30.78185 -5.46205,0.79617 -9.60023,2.14779 -15.68255,3.0643 -2.6477,0.60139 -2.97171,-2.98098 -1.30533,-3.98081 7.35987,-2.01817 15.00673,-3.87897 22.4314,-5.52685 13.03485,-15.0993 21.14458,-23.55159 32.01313,-33.97575 4.3326,-4.14745 12.28497,-11.98872 19.70039,-13.39589 5.35095,0.12 16.05285,2.2311 11.51656,9.16512 -7.7672,9.26695 -14.6827,17.12675 -25.1902,29.75425 9.66505,-1.49975 19.35785,-2.9995 29.05992,-4.48998 4.36038,0.49028 5.36022,3.18465 1.5553,5.19356 -2.60142,0.67619 -2.60142,0.67619 -36.15132,6.28599 -0.52731,0.49028 -1.04611,1.01833 -1.52751,1.53676 -6.76739,9.017 -13.30332,17.92292 -19.61707,27.23615 -13.75693,21.78337 -25.77343,42.86315 -30.5967,68.5532 -0.3977,2.10149 -0.75913,6.42484 0.77765,8.01717 1.85153,0.015 4.80475,-1.62937 6.77663,-2.48107 25.75492,-13.3125 46.93654,-31.02248 71.86752,-46.6217 11.40548,-27.27318 24.42182,-54.91666 39.20637,-80.46791 3.26796,-3.64754 6.3693,-1.60159 5.09173,0.99056 -8.12827,14.27537 -28.88403,54.91667 -35.67918,73.79312 15.46961,-10.68338 38.66016,-24.69028 55.36105,-31.88352 6.13785,-2.6477 14.84935,-0.9628 18.4691,6.34154 1.38866,2.78656 1.4257,9.42433 0.19478,12.68305 -6.54518,17.25635 -14.19205,30.74481 -21.50563,47.35311 -2.75879,7.18399 -8.1838,16.73785 -7.24877,22.45912 0.74062,4.5085 30.57817,-16.9693 35.21628,-20.81123 1.74045,-1.45347 13.32184,-10.91484 15.37704,-12.29424 4.42518,-2.98098 7.61908,-5.2306 11.60915,-5.03618 7.8598,0.39845 15.58996,5.6009 11.1648,10.36862 -20.63542,22.17211 -42.68727,44.71461 -69.87712,51.88008 -12.00723,3.16613 -29.13398,-5.68423 -30.09678,-21.0983 -0.80542,-12.84043 3.25871,-25.14383 8.43376,-36.8178 2.27739,-5.14728 8.26712,-17.9692 11.0722,-23.28312 -18.15435,11.84987 -35.01261,24.00522 -52.41708,37.87325 -5.79532,15.53435 -8.5819,23.2923 -12.78488,39.78952 -1.46272,5.712 -8.5356,4.11042 -7.30434,-0.42585 2.17557,-7.9894 8.2949,-24.04225 11.07222,-32.59628 -15.12708,11.24803 -30.58745,24.78278 -47.75122,32.62405 -9.12808,4.17523 -19.14491,5.81383 -26.65291,3.28648 -16.7842,-5.65645 -21.94075,-17.2656 -21.94075,-34.83665 z m 240.93162,-44.96463 c -5.23985,-1.0091 -7.16545,-4.95287 -6.09157,-9.98907 5.68423,-12.16462 21.29272,-1.2035 12.5627,8.18382 -1.87932,1.59231 -3.45312,2.35145 -6.47113,1.80525" /></g><text
       sodipodi:linespacing="125%"
       id="text3920"
       y="448.18896"
       x="115.92355"
       style="font-size:80px;font-style:normal;font-weight:normal;line-height:125%;letter-spacing:0px;word-spacing:0px;fill:#ecf0f1;fill-opacity:1;stroke:none;font-family:Sans"
       xml:space="preserve"><tspan
         style="font-size:30px;font-style:normal;font-variant:normal;font-weight:normal;font-stretch:normal;font-family:Tibetan Machine Uni;-inkscape-font-specification:Tibetan Machine Uni"
         y="448.18896"
         x="115.92355"
         id="tspan3922"
         sodipodi:role="line">Vorlesungs-</tspan><tspan
         id="tspan3924"
         style="font-size:30px;font-style:normal;font-variant:normal;font-weight:normal;font-stretch:normal;font-family:Tibetan Machine Uni;-inkscape-font-specification:Tibetan Machine Uni"
         y="485.68896"
         x="115.92355"
         sodipodi:role="line">verzeichnis</tspan></text>
<text
       sodipodi:linespacing="125%"
       id="text3926"
       y="408.27759"
       x="115.35226"
       style="font-size:80px;font-style:normal;font-weight:normal;line-height:125%;letter-spacing:0px;word-spacing:0px;fill:#ecf0f1;fill-opacity:1;stroke:none;font-family:Sans"
       xml:space="preserve"><tspan
         style="font-size:15px;font-style:normal;font-variant:normal;font-weight:normal;font-stretch:normal;fill:#ecf0f1;fill-opacity:1;font-family:Tibetan Machine Uni;-inkscape-font-specification:Tibetan Machine Uni"
         y="408.27759"
         x="115.35226"
         id="tspan3928"
         sodipodi:role="line">Mein</tspan></text>
</g></svg>